<svg width="183.4" height="75" viewBox="0 0 489 200" fill="none" xmlns="http://www.w3.org/2000/svg">
    <path
        d="M241.948 126L234.836 106.4H236.908L243.124 123.536L249.368 106.4H251.44L244.314 126H241.948ZM258.561 126.364C257.273 126.364 256.097 126.033 255.033 125.37C253.978 124.707 253.133 123.821 252.499 122.71C251.873 121.59 251.561 120.353 251.561 119C251.561 117.973 251.743 117.017 252.107 116.13C252.471 115.234 252.97 114.45 253.605 113.778C254.249 113.097 254.995 112.565 255.845 112.182C256.694 111.799 257.599 111.608 258.561 111.608C259.849 111.608 261.02 111.939 262.075 112.602C263.139 113.265 263.983 114.156 264.609 115.276C265.243 116.396 265.561 117.637 265.561 119C265.561 120.017 265.379 120.969 265.015 121.856C264.651 122.743 264.147 123.527 263.503 124.208C262.868 124.88 262.126 125.407 261.277 125.79C260.437 126.173 259.531 126.364 258.561 126.364ZM258.561 124.404C259.513 124.404 260.367 124.157 261.123 123.662C261.888 123.158 262.49 122.495 262.929 121.674C263.377 120.853 263.601 119.961 263.601 119C263.601 118.02 263.377 117.119 262.929 116.298C262.481 115.467 261.874 114.805 261.109 114.31C260.353 113.815 259.503 113.568 258.561 113.568C257.609 113.568 256.75 113.82 255.985 114.324C255.229 114.819 254.627 115.477 254.179 116.298C253.74 117.119 253.521 118.02 253.521 119C253.521 120.008 253.749 120.923 254.207 121.744C254.664 122.556 255.275 123.205 256.041 123.69C256.806 124.166 257.646 124.404 258.561 124.404ZM274.84 113.96H271.494L271.48 126H269.52L269.534 113.96H267V112H269.534L269.52 107.604H271.48L271.494 112H274.84V113.96ZM277.338 126V112H279.298V113.932C279.793 113.223 280.437 112.658 281.23 112.238C282.024 111.818 282.887 111.608 283.82 111.608C284.362 111.608 284.884 111.678 285.388 111.818L284.59 113.764C284.198 113.643 283.816 113.582 283.442 113.582C282.686 113.582 281.991 113.769 281.356 114.142C280.731 114.515 280.232 115.015 279.858 115.64C279.485 116.265 279.298 116.961 279.298 117.726V126H277.338ZM292.576 126.364C291.288 126.364 290.112 126.033 289.048 125.37C287.994 124.707 287.149 123.821 286.514 122.71C285.889 121.59 285.576 120.353 285.576 119C285.576 117.973 285.758 117.017 286.122 116.13C286.486 115.234 286.986 114.45 287.62 113.778C288.264 113.097 289.011 112.565 289.86 112.182C290.71 111.799 291.615 111.608 292.576 111.608C293.612 111.608 294.564 111.813 295.432 112.224C296.31 112.635 297.061 113.209 297.686 113.946C298.321 114.683 298.797 115.547 299.114 116.536C299.441 117.525 299.576 118.594 299.52 119.742H287.648C287.76 120.629 288.04 121.422 288.488 122.122C288.946 122.822 289.524 123.377 290.224 123.788C290.934 124.189 291.718 124.395 292.576 124.404C293.51 124.404 294.35 124.161 295.096 123.676C295.852 123.191 296.459 122.523 296.916 121.674L298.904 122.136C298.344 123.377 297.5 124.395 296.37 125.188C295.241 125.972 293.976 126.364 292.576 126.364ZM287.592 118.16H297.546C297.481 117.292 297.215 116.499 296.748 115.78C296.291 115.052 295.698 114.473 294.97 114.044C294.242 113.605 293.444 113.386 292.576 113.386C291.708 113.386 290.915 113.601 290.196 114.03C289.478 114.45 288.89 115.024 288.432 115.752C287.975 116.471 287.695 117.273 287.592 118.16ZM320.292 112H322.252V126H320.292L320.222 123.396C319.764 124.283 319.125 125.001 318.304 125.552C317.482 126.093 316.502 126.364 315.364 126.364C314.337 126.364 313.376 126.173 312.48 125.79C311.584 125.398 310.795 124.861 310.114 124.18C309.432 123.499 308.9 122.71 308.518 121.814C308.135 120.918 307.944 119.957 307.944 118.93C307.944 117.922 308.13 116.975 308.504 116.088C308.886 115.201 309.409 114.422 310.072 113.75C310.744 113.078 311.518 112.555 312.396 112.182C313.282 111.799 314.23 111.608 315.238 111.608C316.404 111.608 317.422 111.888 318.29 112.448C319.158 112.999 319.848 113.722 320.362 114.618L320.292 112ZM315.322 124.46C316.32 124.46 317.179 124.217 317.898 123.732C318.616 123.237 319.167 122.575 319.55 121.744C319.942 120.913 320.138 119.999 320.138 119C320.138 117.973 319.942 117.049 319.55 116.228C319.158 115.397 318.602 114.739 317.884 114.254C317.165 113.769 316.311 113.526 315.322 113.526C314.332 113.526 313.427 113.773 312.606 114.268C311.794 114.753 311.145 115.411 310.66 116.242C310.184 117.073 309.946 117.992 309.946 119C309.946 120.017 310.193 120.941 310.688 121.772C311.182 122.593 311.836 123.247 312.648 123.732C313.469 124.217 314.36 124.46 315.322 124.46ZM325.244 126V105H327.204V126H325.244ZM330.576 126V105H332.536V126H330.576ZM335.909 112H337.869V126H335.909V112ZM336.903 109.55C336.585 109.55 336.315 109.447 336.091 109.242C335.876 109.027 335.769 108.761 335.769 108.444C335.769 108.127 335.876 107.865 336.091 107.66C336.315 107.445 336.585 107.338 336.903 107.338C337.211 107.338 337.472 107.445 337.687 107.66C337.911 107.865 338.023 108.127 338.023 108.444C338.023 108.761 337.915 109.027 337.701 109.242C337.486 109.447 337.22 109.55 336.903 109.55ZM347.264 126.364C345.976 126.364 344.8 126.033 343.736 125.37C342.681 124.707 341.836 123.821 341.202 122.71C340.576 121.59 340.264 120.353 340.264 119C340.264 117.973 340.446 117.017 340.81 116.13C341.174 115.234 341.673 114.45 342.308 113.778C342.952 113.097 343.698 112.565 344.548 112.182C345.397 111.799 346.302 111.608 347.264 111.608C348.3 111.608 349.252 111.813 350.12 112.224C350.997 112.635 351.748 113.209 352.374 113.946C353.008 114.683 353.484 115.547 353.802 116.536C354.128 117.525 354.264 118.594 354.208 119.742H342.336C342.448 120.629 342.728 121.422 343.176 122.122C343.633 122.822 344.212 123.377 344.912 123.788C345.621 124.189 346.405 124.395 347.264 124.404C348.197 124.404 349.037 124.161 349.784 123.676C350.54 123.191 351.146 122.523 351.604 121.674L353.592 122.136C353.032 123.377 352.187 124.395 351.058 125.188C349.928 125.972 348.664 126.364 347.264 126.364ZM342.28 118.16H352.234C352.168 117.292 351.902 116.499 351.436 115.78C350.978 115.052 350.386 114.473 349.658 114.044C348.93 113.605 348.132 113.386 347.264 113.386C346.396 113.386 345.602 113.601 344.884 114.03C344.165 114.45 343.577 115.024 343.12 115.752C342.662 116.471 342.382 117.273 342.28 118.16ZM346.774 110.46L347.894 106.428H349.854L348.09 110.46H346.774ZM363.471 112H365.431V126H363.471V112ZM364.465 109.55C364.148 109.55 363.877 109.447 363.653 109.242C363.438 109.027 363.331 108.761 363.331 108.444C363.331 108.127 363.438 107.865 363.653 107.66C363.877 107.445 364.148 107.338 364.465 107.338C364.773 107.338 365.034 107.445 365.249 107.66C365.473 107.865 365.585 108.127 365.585 108.444C365.585 108.761 365.478 109.027 365.263 109.242C365.048 109.447 364.782 109.55 364.465 109.55ZM380.956 117.334V126H378.996V117.726C378.996 116.961 378.81 116.265 378.436 115.64C378.063 115.015 377.564 114.515 376.938 114.142C376.313 113.769 375.618 113.582 374.852 113.582C374.096 113.582 373.401 113.769 372.766 114.142C372.141 114.515 371.642 115.015 371.268 115.64C370.895 116.265 370.708 116.961 370.708 117.726V126H368.748V112H370.708V113.932C371.203 113.223 371.847 112.658 372.64 112.238C373.434 111.818 374.297 111.608 375.23 111.608C376.285 111.608 377.246 111.865 378.114 112.378C378.982 112.891 379.673 113.582 380.186 114.45C380.7 115.318 380.956 116.279 380.956 117.334ZM390.914 113.96H387.568L387.554 126H385.594L385.608 113.96H383.074V112H385.608L385.594 107.604H387.554L387.568 112H390.914V113.96ZM399.19 126.364C397.902 126.364 396.726 126.033 395.662 125.37C394.607 124.707 393.762 123.821 393.128 122.71C392.502 121.59 392.19 120.353 392.19 119C392.19 117.973 392.372 117.017 392.736 116.13C393.1 115.234 393.599 114.45 394.234 113.778C394.878 113.097 395.624 112.565 396.474 112.182C397.323 111.799 398.228 111.608 399.19 111.608C400.226 111.608 401.178 111.813 402.046 112.224C402.923 112.635 403.674 113.209 404.3 113.946C404.934 114.683 405.41 115.547 405.728 116.536C406.054 117.525 406.19 118.594 406.134 119.742H394.262C394.374 120.629 394.654 121.422 395.102 122.122C395.559 122.822 396.138 123.377 396.838 123.788C397.547 124.189 398.331 124.395 399.19 124.404C400.123 124.404 400.963 124.161 401.71 123.676C402.466 123.191 403.072 122.523 403.53 121.674L405.518 122.136C404.958 123.377 404.113 124.395 402.984 125.188C401.854 125.972 400.59 126.364 399.19 126.364ZM394.206 118.16H404.16C404.094 117.292 403.828 116.499 403.362 115.78C402.904 115.052 402.312 114.473 401.584 114.044C400.856 113.605 400.058 113.386 399.19 113.386C398.322 113.386 397.528 113.601 396.81 114.03C396.091 114.45 395.503 115.024 395.046 115.752C394.588 116.471 394.308 117.273 394.206 118.16ZM408.424 126V105H410.384V126H408.424ZM413.756 126V105H415.716V126H413.756ZM419.088 112H421.048V126H419.088V112ZM420.082 109.55C419.765 109.55 419.494 109.447 419.27 109.242C419.056 109.027 418.948 108.761 418.948 108.444C418.948 108.127 419.056 107.865 419.27 107.66C419.494 107.445 419.765 107.338 420.082 107.338C420.39 107.338 420.652 107.445 420.866 107.66C421.09 107.865 421.202 108.127 421.202 108.444C421.202 108.761 421.095 109.027 420.88 109.242C420.666 109.447 420.4 109.55 420.082 109.55ZM435.414 112H437.374V126.518C437.374 127.414 437.178 128.254 436.786 129.038C436.403 129.822 435.88 130.508 435.218 131.096C434.564 131.693 433.818 132.16 432.978 132.496C432.138 132.832 431.265 133 430.36 133C429.389 133 428.451 132.776 427.546 132.328C426.64 131.889 425.852 131.301 425.18 130.564C424.517 129.827 424.046 129.01 423.766 128.114L425.572 127.288C425.749 127.988 426.08 128.618 426.566 129.178C427.06 129.747 427.639 130.195 428.302 130.522C428.974 130.858 429.66 131.026 430.36 131.026C431.004 131.026 431.624 130.905 432.222 130.662C432.828 130.429 433.37 130.107 433.846 129.696C434.331 129.285 434.714 128.805 434.994 128.254C435.274 127.713 435.414 127.134 435.414 126.518V123.424C434.928 124.301 434.27 125.011 433.44 125.552C432.618 126.093 431.662 126.364 430.57 126.364C429.59 126.364 428.666 126.173 427.798 125.79C426.939 125.407 426.183 124.88 425.53 124.208C424.876 123.527 424.363 122.743 423.99 121.856C423.626 120.969 423.444 120.017 423.444 119C423.444 117.983 423.626 117.031 423.99 116.144C424.363 115.248 424.876 114.464 425.53 113.792C426.183 113.111 426.939 112.579 427.798 112.196C428.666 111.813 429.59 111.622 430.57 111.622C431.662 111.622 432.618 111.893 433.44 112.434C434.27 112.966 434.928 113.675 435.414 114.562V112ZM430.584 124.46C431.554 124.46 432.39 124.208 433.09 123.704C433.799 123.2 434.345 122.533 434.728 121.702C435.11 120.871 435.302 119.971 435.302 119C435.302 118.001 435.106 117.091 434.714 116.27C434.331 115.439 433.785 114.777 433.076 114.282C432.366 113.778 431.536 113.526 430.584 113.526C429.632 113.526 428.764 113.773 427.98 114.268C427.205 114.753 426.589 115.411 426.132 116.242C425.674 117.073 425.446 117.992 425.446 119C425.446 120.008 425.679 120.927 426.146 121.758C426.612 122.579 427.233 123.237 428.008 123.732C428.792 124.217 429.65 124.46 430.584 124.46ZM446.768 126.364C445.48 126.364 444.304 126.033 443.24 125.37C442.185 124.707 441.34 123.821 440.706 122.71C440.08 121.59 439.768 120.353 439.768 119C439.768 117.973 439.95 117.017 440.314 116.13C440.678 115.234 441.177 114.45 441.812 113.778C442.456 113.097 443.202 112.565 444.052 112.182C444.901 111.799 445.806 111.608 446.768 111.608C447.804 111.608 448.756 111.813 449.624 112.224C450.501 112.635 451.252 113.209 451.878 113.946C452.512 114.683 452.988 115.547 453.306 116.536C453.632 117.525 453.768 118.594 453.712 119.742H441.84C441.952 120.629 442.232 121.422 442.68 122.122C443.137 122.822 443.716 123.377 444.416 123.788C445.125 124.189 445.909 124.395 446.768 124.404C447.701 124.404 448.541 124.161 449.288 123.676C450.044 123.191 450.65 122.523 451.108 121.674L453.096 122.136C452.536 123.377 451.691 124.395 450.562 125.188C449.432 125.972 448.168 126.364 446.768 126.364ZM441.784 118.16H451.738C451.672 117.292 451.406 116.499 450.94 115.78C450.482 115.052 449.89 114.473 449.162 114.044C448.434 113.605 447.636 113.386 446.768 113.386C445.9 113.386 445.106 113.601 444.388 114.03C443.669 114.45 443.081 115.024 442.624 115.752C442.166 116.471 441.886 117.273 441.784 118.16ZM468.32 117.334V126H466.36V117.726C466.36 116.961 466.173 116.265 465.8 115.64C465.426 115.015 464.927 114.515 464.302 114.142C463.676 113.769 462.981 113.582 462.216 113.582C461.46 113.582 460.764 113.769 460.13 114.142C459.504 114.515 459.005 115.015 458.632 115.64C458.258 116.265 458.072 116.961 458.072 117.726V126H456.112V112H458.072V113.932C458.566 113.223 459.21 112.658 460.004 112.238C460.797 111.818 461.66 111.608 462.594 111.608C463.648 111.608 464.61 111.865 465.478 112.378C466.346 112.891 467.036 113.582 467.55 114.45C468.063 115.318 468.32 116.279 468.32 117.334ZM478.277 113.96H474.931L474.917 126H472.957L472.971 113.96H470.437V112H472.971L472.957 107.604H474.917L474.931 112H478.277V113.96ZM242.07 167H240.11V146H242.07V148.618C242.555 147.731 243.218 147.013 244.058 146.462C244.898 145.911 245.896 145.636 247.054 145.636C248.071 145.636 249.023 145.827 249.91 146.21C250.806 146.593 251.59 147.125 252.262 147.806C252.934 148.478 253.461 149.257 253.844 150.144C254.226 151.031 254.418 151.983 254.418 153C254.418 154.017 254.226 154.974 253.844 155.87C253.461 156.766 252.934 157.555 252.262 158.236C251.59 158.908 250.806 159.435 249.91 159.818C249.023 160.201 248.071 160.392 247.054 160.392C245.896 160.392 244.898 160.117 244.058 159.566C243.218 159.015 242.555 158.297 242.07 157.41V167ZM247.04 147.54C246.06 147.54 245.206 147.787 244.478 148.282C243.759 148.767 243.204 149.421 242.812 150.242C242.42 151.063 242.224 151.983 242.224 153C242.224 153.999 242.415 154.913 242.798 155.744C243.19 156.575 243.745 157.237 244.464 157.732C245.192 158.227 246.05 158.474 247.04 158.474C248.01 158.474 248.902 158.231 249.714 157.746C250.535 157.261 251.193 156.607 251.688 155.786C252.182 154.955 252.43 154.027 252.43 153C252.43 152.001 252.187 151.091 251.702 150.27C251.216 149.439 250.568 148.777 249.756 148.282C248.944 147.787 248.038 147.54 247.04 147.54ZM262.813 160.364C261.525 160.364 260.349 160.033 259.285 159.37C258.23 158.707 257.385 157.821 256.751 156.71C256.125 155.59 255.813 154.353 255.813 153C255.813 151.973 255.995 151.017 256.359 150.13C256.723 149.234 257.222 148.45 257.857 147.778C258.501 147.097 259.247 146.565 260.097 146.182C260.946 145.799 261.851 145.608 262.813 145.608C264.101 145.608 265.272 145.939 266.327 146.602C267.391 147.265 268.235 148.156 268.861 149.276C269.495 150.396 269.813 151.637 269.813 153C269.813 154.017 269.631 154.969 269.267 155.856C268.903 156.743 268.399 157.527 267.755 158.208C267.12 158.88 266.378 159.407 265.529 159.79C264.689 160.173 263.783 160.364 262.813 160.364ZM262.813 158.404C263.765 158.404 264.619 158.157 265.375 157.662C266.14 157.158 266.742 156.495 267.181 155.674C267.629 154.853 267.853 153.961 267.853 153C267.853 152.02 267.629 151.119 267.181 150.298C266.733 149.467 266.126 148.805 265.361 148.31C264.605 147.815 263.755 147.568 262.813 147.568C261.861 147.568 261.002 147.82 260.237 148.324C259.481 148.819 258.879 149.477 258.431 150.298C257.992 151.119 257.773 152.02 257.773 153C257.773 154.008 258.001 154.923 258.459 155.744C258.916 156.556 259.527 157.205 260.293 157.69C261.058 158.166 261.898 158.404 262.813 158.404ZM271.487 154.638V146H273.447V154.246C273.447 155.011 273.634 155.707 274.007 156.332C274.381 156.957 274.88 157.457 275.505 157.83C276.14 158.203 276.835 158.39 277.591 158.39C278.357 158.39 279.047 158.203 279.663 157.83C280.289 157.457 280.788 156.957 281.161 156.332C281.535 155.707 281.721 155.011 281.721 154.246V146H283.681L283.695 160H281.735L281.721 158.04C281.227 158.749 280.583 159.314 279.789 159.734C279.005 160.154 278.147 160.364 277.213 160.364C276.159 160.364 275.197 160.107 274.329 159.594C273.461 159.081 272.771 158.39 272.257 157.522C271.744 156.654 271.487 155.693 271.487 154.638ZM286.485 160V146H288.445V147.932C288.939 147.223 289.583 146.658 290.377 146.238C291.17 145.818 292.033 145.608 292.967 145.608C293.508 145.608 294.031 145.678 294.535 145.818L293.737 147.764C293.345 147.643 292.962 147.582 292.589 147.582C291.833 147.582 291.137 147.769 290.503 148.142C289.877 148.515 289.378 149.015 289.005 149.64C288.631 150.265 288.445 150.961 288.445 151.726V160H286.485ZM303.219 160V139H305.179V160H303.219ZM314.602 160.364C313.314 160.364 312.138 160.033 311.074 159.37C310.019 158.707 309.174 157.821 308.54 156.71C307.914 155.59 307.602 154.353 307.602 153C307.602 151.973 307.784 151.017 308.148 150.13C308.512 149.234 309.011 148.45 309.646 147.778C310.29 147.097 311.036 146.565 311.886 146.182C312.735 145.799 313.64 145.608 314.602 145.608C315.638 145.608 316.59 145.813 317.458 146.224C318.335 146.635 319.086 147.209 319.712 147.946C320.346 148.683 320.822 149.547 321.14 150.536C321.466 151.525 321.602 152.594 321.546 153.742H309.674C309.786 154.629 310.066 155.422 310.514 156.122C310.971 156.822 311.55 157.377 312.25 157.788C312.959 158.189 313.743 158.395 314.602 158.404C315.535 158.404 316.375 158.161 317.122 157.676C317.878 157.191 318.484 156.523 318.942 155.674L320.93 156.136C320.37 157.377 319.525 158.395 318.396 159.188C317.266 159.972 316.002 160.364 314.602 160.364ZM309.618 152.16H319.572C319.506 151.292 319.24 150.499 318.774 149.78C318.316 149.052 317.724 148.473 316.996 148.044C316.268 147.605 315.47 147.386 314.602 147.386C313.734 147.386 312.94 147.601 312.222 148.03C311.503 148.45 310.915 149.024 310.458 149.752C310 150.471 309.72 151.273 309.618 152.16ZM330.809 160V146H332.769V147.932C333.264 147.223 333.908 146.658 334.701 146.238C335.494 145.818 336.358 145.608 337.291 145.608C337.832 145.608 338.355 145.678 338.859 145.818L338.061 147.764C337.669 147.643 337.286 147.582 336.913 147.582C336.157 147.582 335.462 147.769 334.827 148.142C334.202 148.515 333.702 149.015 333.329 149.64C332.956 150.265 332.769 150.961 332.769 151.726V160H330.809ZM346.047 160.364C344.759 160.364 343.583 160.033 342.519 159.37C341.464 158.707 340.62 157.821 339.985 156.71C339.36 155.59 339.047 154.353 339.047 153C339.047 151.973 339.229 151.017 339.593 150.13C339.957 149.234 340.456 148.45 341.091 147.778C341.735 147.097 342.482 146.565 343.331 146.182C344.18 145.799 345.086 145.608 346.047 145.608C347.083 145.608 348.035 145.813 348.903 146.224C349.78 146.635 350.532 147.209 351.157 147.946C351.792 148.683 352.268 149.547 352.585 150.536C352.912 151.525 353.047 152.594 352.991 153.742H341.119C341.231 154.629 341.511 155.422 341.959 156.122C342.416 156.822 342.995 157.377 343.695 157.788C344.404 158.189 345.188 158.395 346.047 158.404C346.98 158.404 347.82 158.161 348.567 157.676C349.323 157.191 349.93 156.523 350.387 155.674L352.375 156.136C351.815 157.377 350.97 158.395 349.841 159.188C348.712 159.972 347.447 160.364 346.047 160.364ZM341.063 152.16H351.017C350.952 151.292 350.686 150.499 350.219 149.78C349.762 149.052 349.169 148.473 348.441 148.044C347.713 147.605 346.915 147.386 346.047 147.386C345.179 147.386 344.386 147.601 343.667 148.03C342.948 148.45 342.36 149.024 341.903 149.752C341.446 150.471 341.166 151.273 341.063 152.16ZM365.25 156.486L367 157.438C366.366 158.325 365.558 159.034 364.578 159.566C363.608 160.098 362.553 160.364 361.414 160.364C360.126 160.364 358.95 160.033 357.886 159.37C356.832 158.707 355.987 157.821 355.352 156.71C354.727 155.59 354.414 154.353 354.414 153C354.414 151.973 354.596 151.017 354.96 150.13C355.324 149.234 355.824 148.45 356.458 147.778C357.102 147.097 357.849 146.565 358.698 146.182C359.548 145.799 360.453 145.608 361.414 145.608C362.553 145.608 363.608 145.874 364.578 146.406C365.558 146.938 366.366 147.652 367 148.548L365.25 149.486C364.765 148.87 364.182 148.399 363.5 148.072C362.819 147.736 362.124 147.568 361.414 147.568C360.472 147.568 359.618 147.82 358.852 148.324C358.087 148.819 357.48 149.477 357.032 150.298C356.594 151.119 356.374 152.02 356.374 153C356.374 153.98 356.598 154.881 357.046 155.702C357.504 156.523 358.115 157.181 358.88 157.676C359.646 158.161 360.49 158.404 361.414 158.404C362.18 158.404 362.898 158.227 363.57 157.872C364.242 157.517 364.802 157.055 365.25 156.486ZM369.528 160V146H371.488V147.932C371.982 147.223 372.626 146.658 373.42 146.238C374.213 145.818 375.076 145.608 376.01 145.608C376.551 145.608 377.074 145.678 377.578 145.818L376.78 147.764C376.388 147.643 376.005 147.582 375.632 147.582C374.876 147.582 374.18 147.769 373.546 148.142C372.92 148.515 372.421 149.015 372.048 149.64C371.674 150.265 371.488 150.961 371.488 151.726V160H369.528ZM378.702 154.638V146H380.662V154.246C380.662 155.011 380.849 155.707 381.222 156.332C381.595 156.957 382.095 157.457 382.72 157.83C383.355 158.203 384.05 158.39 384.806 158.39C385.571 158.39 386.262 158.203 386.878 157.83C387.503 157.457 388.003 156.957 388.376 156.332C388.749 155.707 388.936 155.011 388.936 154.246V146H390.896L390.91 160H388.95L388.936 158.04C388.441 158.749 387.797 159.314 387.004 159.734C386.22 160.154 385.361 160.364 384.428 160.364C383.373 160.364 382.412 160.107 381.544 159.594C380.676 159.081 379.985 158.39 379.472 157.522C378.959 156.654 378.702 155.693 378.702 154.638ZM400.854 147.96H397.508L397.494 160H395.534L395.548 147.96H393.014V146H395.548L395.534 141.604H397.494L397.508 146H400.854V147.96ZM409.129 160.364C407.841 160.364 406.665 160.033 405.601 159.37C404.546 158.707 403.702 157.821 403.067 156.71C402.442 155.59 402.129 154.353 402.129 153C402.129 151.973 402.311 151.017 402.675 150.13C403.039 149.234 403.538 148.45 404.173 147.778C404.817 147.097 405.564 146.565 406.413 146.182C407.262 145.799 408.168 145.608 409.129 145.608C410.165 145.608 411.117 145.813 411.985 146.224C412.862 146.635 413.614 147.209 414.239 147.946C414.874 148.683 415.35 149.547 415.667 150.536C415.994 151.525 416.129 152.594 416.073 153.742H404.201C404.313 154.629 404.593 155.422 405.041 156.122C405.498 156.822 406.077 157.377 406.777 157.788C407.486 158.189 408.27 158.395 409.129 158.404C410.062 158.404 410.902 158.161 411.649 157.676C412.405 157.191 413.012 156.523 413.469 155.674L415.457 156.136C414.897 157.377 414.052 158.395 412.923 159.188C411.794 159.972 410.529 160.364 409.129 160.364ZM404.145 152.16H414.099C414.034 151.292 413.768 150.499 413.301 149.78C412.844 149.052 412.251 148.473 411.523 148.044C410.795 147.605 409.997 147.386 409.129 147.386C408.261 147.386 407.468 147.601 406.749 148.03C406.03 148.45 405.442 149.024 404.985 149.752C404.528 150.471 404.248 151.273 404.145 152.16ZM418.473 160V146H420.433V147.932C420.937 147.223 421.581 146.658 422.365 146.238C423.149 145.818 424.008 145.608 424.941 145.608C425.996 145.608 426.962 145.869 427.839 146.392C428.716 146.905 429.402 147.591 429.897 148.45C430.392 147.591 431.073 146.905 431.941 146.392C432.809 145.869 433.77 145.608 434.825 145.608C435.88 145.608 436.841 145.865 437.709 146.378C438.577 146.891 439.268 147.582 439.781 148.45C440.294 149.318 440.551 150.279 440.551 151.334V160H438.591V151.768C438.591 151.021 438.409 150.331 438.045 149.696C437.681 149.061 437.191 148.553 436.575 148.17C435.968 147.778 435.292 147.582 434.545 147.582C433.798 147.582 433.117 147.764 432.501 148.128C431.894 148.483 431.409 148.977 431.045 149.612C430.681 150.237 430.499 150.956 430.499 151.768V160H428.539V151.768C428.539 150.956 428.357 150.237 427.993 149.612C427.629 148.977 427.139 148.483 426.523 148.128C425.907 147.764 425.226 147.582 424.479 147.582C423.742 147.582 423.065 147.778 422.449 148.17C421.833 148.553 421.343 149.061 420.979 149.696C420.615 150.331 420.433 151.021 420.433 151.768V160H418.473ZM449.242 160.364C447.954 160.364 446.778 160.033 445.714 159.37C444.66 158.707 443.815 157.821 443.18 156.71C442.555 155.59 442.242 154.353 442.242 153C442.242 151.973 442.424 151.017 442.788 150.13C443.152 149.234 443.652 148.45 444.286 147.778C444.93 147.097 445.677 146.565 446.526 146.182C447.376 145.799 448.281 145.608 449.242 145.608C450.278 145.608 451.23 145.813 452.098 146.224C452.976 146.635 453.727 147.209 454.352 147.946C454.987 148.683 455.463 149.547 455.78 150.536C456.107 151.525 456.242 152.594 456.186 153.742H444.314C444.426 154.629 444.706 155.422 445.154 156.122C445.612 156.822 446.19 157.377 446.89 157.788C447.6 158.189 448.384 158.395 449.242 158.404C450.176 158.404 451.016 158.161 451.762 157.676C452.518 157.191 453.125 156.523 453.582 155.674L455.57 156.136C455.01 157.377 454.166 158.395 453.036 159.188C451.907 159.972 450.642 160.364 449.242 160.364ZM444.258 152.16H454.212C454.147 151.292 453.881 150.499 453.414 149.78C452.957 149.052 452.364 148.473 451.636 148.044C450.908 147.605 450.11 147.386 449.242 147.386C448.374 147.386 447.581 147.601 446.862 148.03C446.144 148.45 445.556 149.024 445.098 149.752C444.641 150.471 444.361 151.273 444.258 152.16ZM470.794 151.334V160H468.834V151.726C468.834 150.961 468.648 150.265 468.274 149.64C467.901 149.015 467.402 148.515 466.776 148.142C466.151 147.769 465.456 147.582 464.69 147.582C463.934 147.582 463.239 147.769 462.604 148.142C461.979 148.515 461.48 149.015 461.106 149.64C460.733 150.265 460.546 150.961 460.546 151.726V160H458.586V146H460.546V147.932C461.041 147.223 461.685 146.658 462.478 146.238C463.272 145.818 464.135 145.608 465.068 145.608C466.123 145.608 467.084 145.865 467.952 146.378C468.82 146.891 469.511 147.582 470.024 148.45C470.538 149.318 470.794 150.279 470.794 151.334ZM480.752 147.96H477.406L477.392 160H475.432L475.446 147.96H472.912V146H475.446L475.432 141.604H477.392L477.406 146H480.752V147.96Z"
        fill="#F3F2F2" />
    <path
        d="M255.454 85.78C252.614 85.78 249.944 85.22 247.444 84.1C244.944 82.96 242.744 81.39 240.844 79.39C238.964 77.39 237.484 75.08 236.404 72.46C235.344 69.82 234.814 67 234.814 64C234.814 60.98 235.344 58.16 236.404 55.54C237.484 52.9 238.964 50.59 240.844 48.61C242.744 46.61 244.944 45.05 247.444 43.93C249.944 42.79 252.614 42.22 255.454 42.22C258.854 42.22 261.984 43.01 264.844 44.59C267.704 46.15 270.074 48.24 271.954 50.86L265.414 54.37C264.234 52.91 262.764 51.74 261.004 50.86C259.264 49.98 257.414 49.54 255.454 49.54C253.614 49.54 251.884 49.92 250.264 50.68C248.644 51.42 247.224 52.46 246.004 53.8C244.784 55.12 243.834 56.66 243.154 58.42C242.474 60.16 242.134 62.02 242.134 64C242.134 66 242.474 67.87 243.154 69.61C243.854 71.35 244.814 72.89 246.034 74.23C247.254 75.55 248.664 76.59 250.264 77.35C251.884 78.09 253.614 78.46 255.454 78.46C257.454 78.46 259.314 78.02 261.034 77.14C262.774 76.24 264.234 75.06 265.414 73.6L271.954 77.14C270.074 79.74 267.704 81.83 264.844 83.41C261.984 84.99 258.854 85.78 255.454 85.78ZM298.654 55H305.974V85H298.654L298.324 81.28C297.504 82.62 296.414 83.71 295.054 84.55C293.714 85.37 292.124 85.78 290.284 85.78C288.064 85.78 285.984 85.36 284.044 84.52C282.104 83.68 280.394 82.52 278.914 81.04C277.454 79.56 276.304 77.85 275.464 75.91C274.644 73.97 274.234 71.89 274.234 69.67C274.234 67.53 274.624 65.52 275.404 63.64C276.204 61.76 277.314 60.11 278.734 58.69C280.154 57.27 281.794 56.16 283.654 55.36C285.514 54.56 287.514 54.16 289.654 54.16C291.634 54.16 293.404 54.6 294.964 55.48C296.544 56.36 297.884 57.48 298.984 58.84L298.654 55ZM290.104 78.73C291.664 78.73 293.044 78.34 294.244 77.56C295.444 76.78 296.384 75.73 297.064 74.41C297.744 73.07 298.084 71.6 298.084 70C298.084 68.38 297.744 66.91 297.064 65.59C296.384 64.25 295.434 63.19 294.214 62.41C293.014 61.63 291.644 61.24 290.104 61.24C288.564 61.24 287.154 61.64 285.874 62.44C284.614 63.22 283.604 64.27 282.844 65.59C282.104 66.91 281.734 68.38 281.734 70C281.734 71.62 282.114 73.09 282.874 74.41C283.634 75.73 284.644 76.78 285.904 77.56C287.184 78.34 288.584 78.73 290.104 78.73ZM339.432 66.04V85H332.112V67.96C332.112 66.78 331.822 65.71 331.242 64.75C330.662 63.77 329.882 63 328.902 62.44C327.942 61.86 326.872 61.57 325.692 61.57C324.512 61.57 323.432 61.86 322.452 62.44C321.492 63 320.722 63.77 320.142 64.75C319.582 65.71 319.302 66.78 319.302 67.96V85H311.982L311.952 55H319.272L319.302 57.67C320.322 56.59 321.542 55.74 322.962 55.12C324.382 54.48 325.912 54.16 327.552 54.16C329.732 54.16 331.722 54.7 333.522 55.78C335.322 56.84 336.752 58.27 337.812 60.07C338.892 61.85 339.432 63.84 339.432 66.04ZM367.503 40H374.823V85H367.503V81.25C366.543 82.59 365.333 83.68 363.873 84.52C362.413 85.36 360.723 85.78 358.803 85.78C356.623 85.78 354.583 85.37 352.683 84.55C350.783 83.73 349.103 82.6 347.643 81.16C346.203 79.7 345.073 78.02 344.253 76.12C343.433 74.22 343.023 72.18 343.023 70C343.023 67.82 343.433 65.78 344.253 63.88C345.073 61.98 346.203 60.31 347.643 58.87C349.103 57.41 350.783 56.27 352.683 55.45C354.583 54.63 356.623 54.22 358.803 54.22C360.723 54.22 362.413 54.64 363.873 55.48C365.333 56.3 366.543 57.39 367.503 58.75V40ZM358.893 78.73C360.453 78.73 361.833 78.34 363.033 77.56C364.233 76.78 365.173 75.73 365.853 74.41C366.533 73.07 366.873 71.6 366.873 70C366.873 68.38 366.533 66.91 365.853 65.59C365.173 64.25 364.223 63.19 363.003 62.41C361.803 61.63 360.433 61.24 358.893 61.24C357.353 61.24 355.943 61.64 354.663 62.44C353.403 63.22 352.393 64.27 351.633 65.59C350.893 66.91 350.523 68.38 350.523 70C350.523 71.62 350.903 73.09 351.663 74.41C352.423 75.73 353.433 76.78 354.693 77.56C355.973 78.34 357.373 78.73 358.893 78.73ZM382.03 55H389.35V85H382.03V55ZM385.75 51.13C384.67 51.13 383.76 50.78 383.02 50.08C382.28 49.36 381.91 48.46 381.91 47.38C381.91 46.32 382.28 45.43 383.02 44.71C383.76 43.99 384.66 43.63 385.72 43.63C386.78 43.63 387.67 43.99 388.39 44.71C389.13 45.43 389.5 46.32 389.5 47.38C389.5 48.46 389.14 49.36 388.42 50.08C387.7 50.78 386.81 51.13 385.75 51.13ZM418.538 40H425.858V85H418.538V81.25C417.578 82.59 416.368 83.68 414.908 84.52C413.448 85.36 411.758 85.78 409.838 85.78C407.658 85.78 405.618 85.37 403.718 84.55C401.818 83.73 400.138 82.6 398.678 81.16C397.238 79.7 396.108 78.02 395.288 76.12C394.468 74.22 394.058 72.18 394.058 70C394.058 67.82 394.468 65.78 395.288 63.88C396.108 61.98 397.238 60.31 398.678 58.87C400.138 57.41 401.818 56.27 403.718 55.45C405.618 54.63 407.658 54.22 409.838 54.22C411.758 54.22 413.448 54.64 414.908 55.48C416.368 56.3 417.578 57.39 418.538 58.75V40ZM409.928 78.73C411.488 78.73 412.868 78.34 414.068 77.56C415.268 76.78 416.208 75.73 416.888 74.41C417.568 73.07 417.908 71.6 417.908 70C417.908 68.38 417.568 66.91 416.888 65.59C416.208 64.25 415.258 63.19 414.038 62.41C412.838 61.63 411.468 61.24 409.928 61.24C408.388 61.24 406.978 61.64 405.698 62.44C404.438 63.22 403.428 64.27 402.668 65.59C401.928 66.91 401.558 68.38 401.558 70C401.558 71.62 401.938 73.09 402.698 74.41C403.458 75.73 404.468 76.78 405.728 77.56C407.008 78.34 408.408 78.73 409.928 78.73ZM447.105 43H455.535L470.805 85H463.035L460.335 77.56H442.335L439.635 85H431.865L447.105 43ZM445.005 70.24H457.635L451.305 52.93L445.005 70.24ZM476.738 85V43H484.058V85H476.738Z"
        fill="#F3F2F2" />
    <path d="M139.241 5.69621L86.7089 99.3671H191.772L139.241 5.69621Z" fill="#D9AB8C" />
    <path d="M60.1266 200L7.59497 106.329H112.658L60.1266 200Z" fill="#D9AB8C" />
    <path d="M84.1772 199.367V129.747H196.835V199.367H84.1772Z" fill="#F3F2F2" />
    <rect x="12.6582" y="12.6582" width="75.9494" height="75.9494" rx="37.9747" stroke="#007ACC"
        stroke-width="25.3165" />
</svg>